<svg width="499.20000000000005" height="108.91439958057205" viewBox="0 0 369.6666666666667 80.65309103555984" class="looka-1j8o68f"><defs id="SvgjsDefs1011"></defs><g id="SvgjsG1012" featurekey="HKaMnE-0" transform="matrix(2.8735169150926305,0,0,2.8735169150926305,1.6901469914000353,3.3485580161491075)" fill="currentColor"><path xmlns="http://www.w3.org/2000/svg" d="M30.498,18.473l-0.217-2.226c-0.005-0.049-0.018-0.098-0.036-0.144l-4.338-10.42C25.83,5.5,25.652,5.379,25.453,5.376  c-0.022,0-2.372-0.041-5.072-0.253c-2.474-0.201-3.77,0.892-4.382,1.697c-0.613-0.803-1.908-1.892-4.38-1.697  c-2.7,0.212-5.05,0.253-5.072,0.253C6.348,5.379,6.17,5.5,6.093,5.684l-4.338,10.42c-0.019,0.046-0.031,0.095-0.036,0.144  l-0.217,2.226c-0.022,0.239,0.127,0.462,0.358,0.529l3.153,0.92l-2.47,6.296c-0.069,0.178-0.032,0.379,0.097,0.52  c0.13,0.142,0.329,0.197,0.509,0.143l12.861-3.753l12.841,3.753c0.182,0.053,0.38-0.001,0.51-0.143  c0.129-0.141,0.166-0.342,0.097-0.52l-2.471-6.296l3.153-0.92C30.371,18.935,30.521,18.712,30.498,18.473z M3.846,25.635  l2.132-5.431l8.242,2.405L3.846,25.635z M15.5,21.939L2.538,18.157l0.123-1.265c1.189,0.226,3.831,0.679,6.499,0.826  c4.25,0.236,5.96,1.874,6.34,2.305V21.939z M15.5,18.674c-1.004-0.765-2.935-1.768-6.285-1.953  c-2.566-0.142-5.175-0.588-6.301-0.798l3.978-9.555c0.745-0.019,2.667-0.081,4.806-0.249c2.763-0.211,3.64,1.408,3.803,1.77V18.674z   M16.5,7.89c0.161-0.355,1.063-1.975,3.803-1.771c2.139,0.168,4.061,0.23,4.806,0.249l3.978,9.555  c-1.126,0.21-3.734,0.656-6.301,0.798c-3.351,0.186-5.281,1.188-6.285,1.953V7.89z M28.153,25.635l-10.365-3.029l8.233-2.402  L28.153,25.635z M16.5,21.939v-1.915c0.385-0.437,2.097-2.069,6.34-2.306c2.668-0.147,5.31-0.601,6.499-0.826l0.123,1.265  L16.5,21.939z"></path></g><g id="SvgjsG1013" featurekey="J3GnXt-0" transform="matrix(3.021376163747007,0,0,3.021376163747007,97.92408424144534,12.476020555394438)" fill="currentColor"><path d="M4.54 5.84 l4.5 10.72 l0.08 0 l4.46 -10.72 l2.86 0 l0 14.16 l-1.92 0 l0 -11.64 l-0.04 0 l-4.78 11.64 l-1.28 0 l-4.78 -11.64 l-0.04 0 l0 11.64 l-1.92 0 l0 -14.16 l2.86 0 z M23.82 10.28 c1.4533 0 2.5834 0.45664 3.39 1.37 s1.2167 2.17 1.23 3.77 l0 0.5 l-7.6 0 c0 0.77334 0.31 1.4233 0.93 1.95 s1.3767 0.79666 2.27 0.81 c0.98666 0 1.8533 -0.47334 2.6 -1.42 l1.36 1.04 c-1.0133 1.2933 -2.4134 1.94 -4.2 1.94 c-1.4533 0 -2.6234 -0.46334 -3.51 -1.39 s-1.3433 -2.1234 -1.37 -3.59 c0 -1.4133 0.45666 -2.59 1.37 -3.53 s2.09 -1.4233 3.53 -1.45 z M26.520000000000003 14.48 c-0.02666 -0.89334 -0.28 -1.5767 -0.76 -2.05 s-1.14 -0.71 -1.98 -0.71 c-0.56 0 -1.0633 0.13666 -1.51 0.41 s-0.79666 0.62668 -1.05 1.06 s-0.38 0.86334 -0.38 1.29 l5.68 0 z M35.36 10.28 c1.3733 0 2.36 0.58666 2.96 1.76 c0.30666 -0.56 0.72666 -0.99334 1.26 -1.3 s1.1133 -0.46 1.74 -0.46 c2.3866 0 3.5866 1.3733 3.6 4.12 l0 5.6 l-1.8 0 l0 -5.38 c0 -0.93334 -0.16666 -1.61 -0.5 -2.03 s-0.84668 -0.63 -1.54 -0.63 c-0.81334 0 -1.42 0.24666 -1.82 0.74 s-0.6 1.1733 -0.6 2.04 l0 5.26 l-1.8 0 l0 -5.1 c0 -1.12 -0.16 -1.89 -0.48 -2.31 s-0.82666 -0.63 -1.52 -0.63 c-0.74666 0 -1.3433 0.28666 -1.79 0.86 s-0.67 1.3 -0.67 2.18 l0 5 l-1.8 0 l0 -9.48 l1.68 0 l0 1.48 l0.04 0 c0.2 -0.46666 0.59666 -0.87 1.19 -1.21 s1.21 -0.51 1.85 -0.51 z M52.22 10.28 c1.4 0 2.5866 0.48338 3.56 1.45 s1.4667 2.1434 1.48 3.53 c0 1.4 -0.48666 2.5734 -1.46 3.52 s-2.1666 1.4333 -3.58 1.46 c-1.3867 0 -2.5666 -0.48 -3.54 -1.44 s-1.4733 -2.14 -1.5 -3.54 c0 -1.3733 0.48334 -2.54 1.45 -3.5 s2.1634 -1.4533 3.59 -1.48 z M49.1 15.26 c0 0.97334 0.28664 1.7633 0.85998 2.37 s1.3267 0.91666 2.26 0.93 c0.94666 0 1.7 -0.30334 2.26 -0.91 s0.84666 -1.4033 0.86 -2.39 c0 -0.97334 -0.28 -1.7633 -0.84 -2.37 s-1.3267 -0.91666 -2.3 -0.93 c-0.94666 0 -1.7 0.31334 -2.26 0.94 s-0.84 1.4133 -0.84 2.36 z M64.2 10.28 c0.33334 0 0.6 0.04 0.8 0.12 l-0.08 1.94 c-0.34666 -0.09334 -0.64666 -0.14 -0.9 -0.14 c-1.7733 0 -2.6734 0.98666 -2.7 2.96 l0 4.84 l-1.8 0 l0 -9.48 l1.8 0 l0 1.46 l0.04 0 c0.24 -0.50666 0.62666 -0.91666 1.16 -1.23 s1.0933 -0.47 1.68 -0.47 z M67.96000000000001 5.800000000000001 c0.36 0 0.67002 0.13002 0.93002 0.39002 s0.39 0.57 0.39 0.93 c0 0.37334 -0.13334 0.68668 -0.4 0.94002 s-0.57332 0.38 -0.91998 0.38 c-0.37334 0 -0.68668 -0.12666 -0.94002 -0.38 s-0.38 -0.56668 -0.38 -0.94002 s0.13334 -0.68668 0.4 -0.94002 s0.57332 -0.38 0.91998 -0.38 z M68.86 10.52 l0 9.48 l-1.8 0 l0 -9.48 l1.8 0 z M78.64 10.52 l0 1.6 l-5.42 6.32 l5.7 0 l0 1.56 l-7.86 0 l0 -1.62 l5.38 -6.3 l-5.2 0 l0 -1.56 l7.4 0 z M85.32000000000001 10.28 c1.4533 0 2.5834 0.45664 3.39 1.37 s1.2167 2.17 1.23 3.77 l0 0.5 l-7.6 0 c0 0.77334 0.31 1.4233 0.93 1.95 s1.3767 0.79666 2.27 0.81 c0.98666 0 1.8533 -0.47334 2.6 -1.42 l1.36 1.04 c-1.0133 1.2933 -2.4134 1.94 -4.2 1.94 c-1.4533 0 -2.6234 -0.46334 -3.51 -1.39 s-1.3433 -2.1234 -1.37 -3.59 c0 -1.4133 0.45666 -2.59 1.37 -3.53 s2.09 -1.4233 3.53 -1.45 z M88.02000000000001 14.48 c-0.02666 -0.89334 -0.28 -1.5767 -0.76 -2.05 s-1.14 -0.71 -1.98 -0.71 c-0.56 0 -1.0633 0.13666 -1.51 0.41 s-0.79666 0.62668 -1.05 1.06 s-0.38 0.86334 -0.38 1.29 l5.68 0 z"></path></g></svg>